<?xml version="1.0" standalone="no"?>
<!DOCTYPE svg PUBLIC "-//W3C//DTD SVG 20010904//EN"
 "http://www.w3.org/TR/2001/REC-SVG-20010904/DTD/svg10.dtd">
<svg version="1.0" xmlns="http://www.w3.org/2000/svg"
 width="700.000000pt" height="700.000000pt" viewBox="0 0 700.000000 700.000000"
 preserveAspectRatio="xMidYMid meet">
<metadata>
Created by potrace 1.14, written by Peter Selinger 2001-2017
</metadata>
<g transform="translate(0.000000,700.000000) scale(0.100000,-0.100000)"
fill="#000000" stroke="none">
<path d="M1345 6989 c-401 -52 -781 -270 -1031 -594 -160 -208 -273 -490 -304
-760 -8 -72 -10 -684 -8 -2200 l4 -2100 22 -100 c65 -285 184 -521 359 -715
234 -259 504 -415 853 -492 l105 -23 2155 0 2155 0 105 23 c351 77 620 233
856 494 174 193 294 435 356 718 l23 105 0 2155 0 2155 -23 105 c-62 283 -182
525 -356 718 -234 259 -500 413 -851 494 l-100 22 -2125 2 c-1213 1 -2155 -2
-2195 -7z m1344 -457 c104 -28 233 -87 314 -146 71 -50 178 -159 226 -228 48
-71 108 -203 133 -293 23 -79 23 -84 23 -780 0 -697 0 -700 -23 -780 -94 -332
-335 -573 -669 -668 -77 -21 -86 -22 -773 -22 l-695 0 -85 23 c-96 26 -225 84
-297 133 -70 47 -178 154 -229 226 -59 81 -118 210 -146 314 -21 81 -22 104
-26 709 -4 672 0 752 44 892 105 338 404 591 754 637 36 5 358 8 715 7 634 -2
652 -3 734 -24z m3060 18 c425 -54 752 -384 802 -813 7 -60 9 -309 7 -717 -4
-605 -5 -628 -26 -709 -25 -94 -83 -225 -133 -298 -47 -69 -154 -178 -225
-229 -79 -57 -209 -118 -309 -146 -79 -23 -85 -23 -775 -23 -631 0 -701 2
-764 18 -183 47 -306 117 -441 252 -135 135 -205 258 -252 441 -16 63 -18 133
-18 764 0 690 0 696 23 775 28 100 89 230 146 309 51 71 160 178 229 225 109
74 265 133 402 151 92 12 1237 12 1334 0z m-3058 -3187 c378 -106 639 -400
689 -775 8 -56 10 -297 8 -728 -4 -630 -4 -647 -26 -725 -28 -99 -89 -229
-146 -309 -51 -71 -160 -178 -229 -225 -73 -50 -204 -108 -298 -133 -81 -21
-104 -22 -709 -26 -408 -2 -657 0 -717 7 -433 51 -763 381 -814 814 -7 60 -9
309 -7 717 4 605 5 628 26 709 28 104 87 233 146 314 50 71 159 178 228 225
104 71 261 133 385 151 32 5 357 8 723 7 645 -2 667 -2 741 -23z m3174 -1 c99
-28 229 -89 309 -146 71 -51 178 -160 225 -229 50 -73 108 -204 133 -298 21
-81 22 -104 26 -709 2 -408 0 -657 -7 -717 -51 -433 -381 -763 -814 -814 -60
-7 -309 -9 -717 -7 -605 4 -628 5 -709 26 -94 25 -226 84 -296 132 -72 49
-182 157 -231 225 -57 80 -118 210 -146 310 -23 79 -23 85 -23 775 0 631 2
701 18 764 42 166 116 302 227 419 150 158 333 256 535 286 33 5 359 8 725 7
654 -2 666 -2 745 -24z"/>
<path d="M1786 6079 c-204 -21 -378 -130 -451 -284 -27 -58 -65 -192 -65 -231
0 -27 7 -29 180 -44 69 -6 135 -13 147 -15 19 -4 22 1 28 48 16 116 80 204
167 228 62 16 158 6 209 -22 115 -64 141 -219 64 -376 -35 -70 -61 -100 -334
-372 -306 -306 -372 -383 -431 -515 -34 -74 -70 -198 -70 -238 l0 -28 620 0
620 0 0 165 0 165 -350 0 c-192 0 -350 3 -350 7 0 22 100 129 251 270 240 223
313 312 383 464 45 99 59 164 58 273 -1 337 -279 544 -676 505z"/>
<path d="M4995 6080 c-227 -26 -384 -175 -459 -432 -41 -142 -57 -283 -58
-498 0 -402 56 -628 193 -775 106 -112 209 -162 360 -172 293 -20 494 133 584
443 44 152 58 300 52 559 -6 242 -20 345 -67 485 -48 145 -148 274 -256 332
-91 49 -231 72 -349 58z m142 -301 c85 -32 133 -136 154 -332 17 -156 6 -627
-16 -727 -36 -159 -92 -223 -200 -223 -92 0 -146 47 -184 160 -35 104 -44 229
-38 550 5 327 16 403 70 496 43 72 136 106 214 76z"/>
<path d="M1571 2293 l-401 -588 0 -152 0 -153 380 0 380 0 0 -185 0 -185 170
0 170 0 0 185 0 185 115 0 115 0 0 155 0 155 -115 0 -115 0 0 585 0 585 -149
0 -148 0 -402 -587z m359 -273 l0 -310 -211 0 c-116 0 -209 3 -207 8 8 18 409
612 413 612 3 0 5 -139 5 -310z"/>
<path d="M4932 2869 c-265 -44 -421 -229 -410 -484 3 -83 8 -101 41 -168 39
-79 81 -122 165 -170 l43 -24 -54 -31 c-190 -107 -282 -331 -232 -565 50 -236
232 -390 505 -427 325 -45 600 121 675 407 35 132 15 308 -48 415 -34 59 -122
140 -186 173 l-52 26 58 38 c143 92 207 239 183 413 -29 203 -182 355 -396
393 -87 16 -211 17 -292 4z m257 -300 c64 -36 95 -88 99 -169 7 -110 -28 -179
-111 -221 -60 -31 -178 -24 -235 14 -60 39 -86 95 -86 182 0 110 51 186 144
214 53 16 142 7 189 -20z m15 -733 c87 -51 126 -130 126 -255 0 -111 -21 -173
-78 -230 -75 -75 -181 -93 -277 -47 -61 29 -97 66 -127 131 -18 41 -23 68 -23
145 0 89 2 99 34 158 53 98 120 135 233 129 49 -3 78 -11 112 -31z"/>
</g>
</svg>
