<?xml version="1.0" standalone="no"?>
<!DOCTYPE svg PUBLIC "-//W3C//DTD SVG 20010904//EN"
 "http://www.w3.org/TR/2001/REC-SVG-20010904/DTD/svg10.dtd">
<svg version="1.0" xmlns="http://www.w3.org/2000/svg"
 width="700.000000pt" height="700.000000pt" viewBox="0 0 700.000000 700.000000"
 preserveAspectRatio="xMidYMid meet">
<metadata>
Created by potrace 1.14, written by Peter Selinger 2001-2017
</metadata>
<g transform="translate(0.000000,700.000000) scale(0.100000,-0.100000)"
fill="#000000" stroke="none">
<path d="M1385 6994 c-107 -14 -234 -41 -323 -70 -538 -175 -933 -628 -1038
-1189 -18 -96 -19 -192 -19 -2235 0 -2043 1 -2139 19 -2235 118 -634 607
-1123 1241 -1241 96 -18 192 -19 2235 -19 2043 0 2139 1 2235 19 413 77 772
312 1006 660 108 161 184 343 231 556 l23 105 0 2145 c0 2053 -1 2149 -19
2245 -77 413 -312 772 -660 1006 -160 108 -347 186 -555 232 l-96 21 -2125 2
c-1169 1 -2138 0 -2155 -2z m1194 -444 c190 -24 377 -111 513 -239 136 -128
225 -277 270 -457 23 -88 23 -95 23 -779 0 -685 0 -691 -23 -770 -25 -90 -85
-222 -133 -293 -47 -68 -155 -178 -225 -228 -79 -57 -209 -118 -309 -146 -79
-23 -85 -23 -770 -23 -684 0 -691 0 -779 23 -181 46 -331 135 -458 272 -128
138 -214 321 -238 511 -13 111 -13 1217 0 1328 32 250 161 472 366 629 107 82
290 155 428 171 107 13 1236 13 1335 1z m3163 0 c361 -41 662 -290 771 -635
14 -44 30 -120 36 -170 14 -115 15 -1197 1 -1318 -22 -191 -108 -377 -238
-517 -89 -96 -168 -155 -283 -209 -185 -89 -233 -93 -1004 -89 -628 4 -642 4
-720 26 -91 26 -223 86 -293 133 -68 47 -178 155 -228 225 -57 79 -118 209
-146 309 -22 79 -23 86 -23 770 0 684 0 691 23 779 67 263 243 487 477 603
101 51 209 82 330 96 73 9 1218 6 1297 -3z m-3047 -3188 c99 -28 229 -89 309
-146 70 -50 178 -160 225 -228 48 -71 108 -203 133 -293 23 -79 23 -85 23
-770 0 -684 0 -691 -23 -779 -80 -313 -308 -559 -609 -656 -51 -16 -132 -34
-180 -40 -121 -14 -1203 -13 -1318 1 -365 45 -659 289 -769 637 -43 138 -48
228 -43 897 3 600 4 623 25 704 28 104 87 233 146 314 51 72 159 179 229 226
105 72 272 134 412 154 17 3 329 4 695 3 654 -2 666 -2 745 -24z m3091 13
c215 -37 378 -125 526 -285 128 -138 214 -321 238 -511 14 -114 13 -1206 -1
-1324 -25 -206 -108 -382 -252 -532 -143 -150 -338 -246 -552 -272 -115 -14
-1197 -15 -1317 -1 -217 25 -416 125 -569 286 -106 112 -181 252 -221 410 -23
88 -23 95 -23 779 0 684 1 691 23 770 28 100 89 230 146 309 50 70 160 178
226 223 110 75 260 134 385 152 33 5 340 9 681 10 516 1 636 -2 710 -14z"/>
<path d="M1785 6079 c-197 -18 -371 -125 -444 -273 -31 -64 -71 -199 -71 -242
0 -28 3 -29 170 -44 69 -6 137 -13 151 -16 24 -5 26 -2 38 62 7 37 19 81 28
98 44 88 129 132 239 123 84 -6 140 -38 179 -101 27 -45 30 -57 30 -136 0 -80
-3 -92 -39 -164 -35 -72 -59 -98 -331 -369 -286 -286 -362 -375 -422 -492 -36
-71 -72 -180 -80 -242 l-6 -53 622 0 621 0 0 165 0 165 -350 0 c-192 0 -350 3
-350 7 0 21 104 133 250 268 229 213 303 300 373 440 96 191 95 413 -2 564
-117 181 -330 266 -606 240z"/>
<path d="M4985 6080 c-270 -37 -434 -243 -490 -616 -20 -130 -23 -484 -6 -614
33 -246 91 -390 202 -498 100 -98 202 -141 354 -149 348 -18 559 208 614 662
16 130 14 443 -4 577 -19 147 -46 243 -97 346 -69 140 -186 241 -319 275 -74
20 -182 27 -254 17z m183 -317 c98 -72 132 -228 132 -609 0 -494 -54 -655
-222 -656 -108 -1 -165 59 -205 219 -15 57 -17 121 -18 408 0 355 6 423 46
530 22 58 58 100 104 122 42 19 129 11 163 -14z"/>
<path d="M1571 2293 l-401 -588 0 -152 0 -153 378 -2 377 -3 3 -182 2 -183
170 0 170 0 0 185 0 185 115 0 115 0 0 155 0 155 -115 0 -115 0 0 585 0 585
-149 0 -149 0 -401 -587z m356 -580 c-2 -2 -97 -2 -211 -1 l-207 3 208 310
208 310 3 -309 c1 -170 1 -311 -1 -313z"/>
<path d="M4905 2863 c-239 -51 -385 -223 -385 -454 0 -91 25 -179 70 -243 35
-52 52 -66 123 -109 l57 -35 -56 -32 c-163 -92 -253 -269 -241 -475 14 -245
165 -428 410 -496 104 -29 288 -32 384 -6 282 75 449 332 412 630 -18 141
-114 279 -241 347 l-61 33 34 18 c106 54 190 173 210 298 31 192 -78 399 -254
481 -122 57 -313 75 -462 43z m238 -274 c86 -24 146 -111 147 -212 0 -95 -37
-159 -114 -199 -59 -30 -177 -23 -234 15 -59 38 -85 94 -86 182 0 57 4 78 24
114 51 90 155 130 263 100z m60 -752 c87 -51 127 -132 127 -256 0 -142 -46
-232 -144 -277 -98 -46 -225 -21 -290 57 -53 62 -70 115 -71 214 0 82 3 96 33
157 50 102 118 141 234 135 49 -3 78 -11 111 -30z"/>
</g>
</svg>
